<?xml version="1.0" encoding="UTF-8"?><svg id="_レイヤー_2" xmlns="http://www.w3.org/2000/svg" viewBox="0 0 79.69 78.68"><defs><style>.cls-1{fill:#707070;stroke-width:0px;}</style></defs><g id="_レイヤー_6"><path class="cls-1" d="M58.14,0H21.55C9.65,0,0,9.65,0,21.55v35.58c0,11.9,9.65,21.55,21.55,21.55h36.59c11.9,0,21.55-9.65,21.55-21.55V21.55c0-11.9-9.65-21.55-21.55-21.55ZM71.99,57.37c0,7.57-6.14,13.7-13.7,13.7H21.41c-7.57,0-13.7-6.14-13.7-13.7V21.32c0-7.57,6.14-13.7,13.7-13.7h36.87c7.57,0,13.7,6.14,13.7,13.7v36.05Z"/><path class="cls-1" d="M39.85,18.89c-11.3,0-20.45,9.16-20.45,20.45s9.16,20.45,20.45,20.45,20.45-9.16,20.45-20.45-9.16-20.45-20.45-20.45ZM39.85,52.66c-7.36,0-13.32-5.96-13.32-13.32s5.96-13.32,13.32-13.32,13.32,5.96,13.32,13.32-5.96,13.32-13.32,13.32Z"/><circle class="cls-1" cx="61.13" cy="18" r="4.76"/></g></svg>